<svg enable-background="new 0 0 606.72 154.93" height="60" viewBox="0 0 120.00001 60.000003" width="120" xmlns="http://www.w3.org/2000/svg"><g stroke-width=".314579"><g transform="matrix(1.2538475 0 0 1.2538475 62.457032 6.503325)"><path d="m1.9254515 4.0426088.912278.015729 2.4788792-2.4788793.1195399-1.05069252c-1.969262-1.75220278-4.56138955-2.81862418-7.3988884-2.81862418-5.1370684 0-9.4719612 3.4949682-10.7554422 8.2293759.270538-.1887471.849362-.047187.849362-.047187l4.9546132-.8147585s.2548086-.4215353.3837858-.396369c1.132483-1.2394397 2.7620001-2.0195946 4.570827-2.0195946 1.46908197.00315 2.8217699.5222005 3.8850455 1.3810002z" fill="#ea4335"/><path d="m8.7989937 5.9489551c-.5756788-2.1234055-1.7616401-3.9982939-3.3628451-5.42018912l-3.5106971 3.51069702c1.4061663 1.1356288 2.3090069 2.8721026 2.3090069 4.8161983v.6197198c1.7081617 0 3.0954533 1.3904369 3.0954533 3.0954529 0 1.708162-1.3904374 3.095454-3.0954533 3.095454h-6.1909067l-.6197198.622865v3.715173l.6197198.616575h6.1909067c4.4387039 0 8.0500666-3.611363 8.0500666-8.050067-.0031-2.7399791-1.384146-5.1685258-3.4855313-6.6218789z" fill="#4285f4"/><path d="m-8.1536465 20.624046h6.1877609v-4.954612h-6.1877609c-.4561389 0-.8871116-.100666-1.2740433-.27683l-.8934032.273684-2.478879 2.478879-.217059.836779c1.352687 1.028672 3.0388287 1.6421 4.8633845 1.6421z" fill="#34a853"/><path d="m-8.1536465 4.5239141c-4.4387035 0-8.0500665 3.6113622-8.0500665 8.0500659 0 2.614148 1.252023 4.938884 3.189827 6.411112l3.589342-3.589342c-1.075859-.487597-1.824556-1.566601-1.824556-2.82177 0-1.708162 1.3904376-3.0954531 3.0954535-3.0954531 1.2551686 0 2.3341732.7518431 2.82177 1.8245561l3.5893417-3.589342c-1.4722278-1.9378041-3.7969636-3.1898269-6.4111117-3.1898269z" fill="#fbbc05"/></g><g fill="#5f6368" transform="matrix(.95407528 0 0 .95407528 -15.487833 35.559419)"><path d="m28.812484 17.166828c-2.220925 0-4.130417-.786447-5.737914-2.35934-1.604351-1.572893-2.409672-3.46351-2.409672-5.668706 0-2.2051959.802176-4.0958133 2.409672-5.6687062 1.604351-1.572893 3.516989-2.3593394 5.737914-2.3593394 2.126551 0 3.96369.7361139 5.501979 2.2114875l-1.547726 1.5477266c-1.110463-1.0444009-2.428547-1.5666014-3.954253-1.5666014-1.604351 0-2.966476.5662415-4.08323 1.705016-1.116754 1.1356287-1.673559 2.5134829-1.673559 4.1304169 0 1.62008.556805 2.994788 1.673559 4.130417s2.475733 1.705016 4.08323 1.705016c1.632663 0 2.982205-.534784 4.054918-1.607497.638594-.638594 1.038109-1.56031 1.195398-2.762h-5.247171v-2.1926126h7.38316c.07865.3900775.116394.8493622.116394 1.3715627 0 2.1548629-.632303 3.8630249-1.900055 5.1307769-1.437624 1.503686-3.303075 2.252383-5.602644 2.252383zm17.157116-1.47852c-1.006652.984631-2.233508 1.47852-3.68057 1.47852-1.447061 0-2.677063-.493889-3.680569-1.47852-1.006652-.984631-1.506832-2.214633-1.506832-3.690007 0-1.475373.503326-2.7053755 1.506832-3.6900065 1.006651-.984631 2.233508-1.4785194 3.680569-1.4785194 1.447062 0 2.677064.4938884 3.68057 1.4785194 1.006651.984631 1.506831 2.2177795 1.506831 3.6900065 0 1.475374-.503325 2.705376-1.506831 3.690007zm-5.737914-1.447061c.575679.594553 1.258315.890257 2.057344.890257.795884 0 1.481666-.295704 2.057344-.890257.575679-.594554.861946-1.340105.861946-2.242946 0-.912278-.283121-1.66412-.852508-2.2523823-.569387-.588262-1.255169-.8808201-2.066782-.8808201-.808467 0-1.497394.2925581-2.066781.8808201-.569387.5882623-.852508 1.3369593-.852508 2.2523823 0 .899695.286267 1.648392.861945 2.242946zm17.056452 1.447061c-1.006652.984631-2.233508 1.47852-3.68057 1.47852-1.447061 0-2.677064-.493889-3.680569-1.47852-1.006652-.984631-1.506832-2.214633-1.506832-3.690007 0-1.475373.503326-2.7053755 1.506832-3.6900065 1.003505-.984631 2.233508-1.4785194 3.680569-1.4785194 1.447062 0 2.677064.4938884 3.68057 1.4785194 1.006651.984631 1.506831 2.2177795 1.506831 3.6900065 0 1.475374-.503326 2.705376-1.506831 3.690007zm-5.737914-1.447061c.575679.594553 1.258314.890257 2.057344.890257.795884 0 1.481665-.295704 2.057344-.890257.575679-.594554.861945-1.340105.861945-2.242946 0-.912278-.28312-1.66412-.852508-2.2523823-.569387-.588262-1.255168-.8808201-2.066781-.8808201-.808467 0-1.497394.2925581-2.066781.8808201-.569387.5882623-.852508 1.3369593-.852508 2.2523823 0 .899695.286266 1.648392.861945 2.242946zm13.177697 7.568761c-1.148212 0-2.113968-.308287-2.897269-.921716-.7833-.613428-1.34325-1.324376-1.682995-2.135988l1.978699-.82105c.207622.497034.534784.928006.97834 1.292918.443556.364911.984631.547366 1.626371.547366.861945 0 1.538289-.2611 2.025886-.7833.490743-.522201.732968-1.274044.732968-2.252383v-.745551h-.07864c-.638595.7833-1.547727 1.176524-2.721105 1.176524-1.318084 0-2.472588-.503326-3.466656-1.506832-.990923-1.003506-1.487957-2.217779-1.487957-3.64282 0-1.434478.497034-2.6613348 1.487957-3.6711321.990922-1.0097972 2.148572-1.5162688 3.466656-1.5162688.588262 0 1.1199.1101025 1.594913.3334533.475014.2233508.852508.4970342 1.126192.8210502h.07864v-.8430707h2.154864v9.2832141c0 1.802535-.459285 3.148932-1.381 4.045481-.921716.890257-2.09824 1.340105-3.535864 1.340105zm.15729-6.678504c.7833 0 1.440769-.295704 1.969262-.890257.528492-.594554.792738-1.333814.792738-2.224071 0-.899695-.264246-1.651538-.792738-2.2523826-.528493-.6008451-1.185962-.8996948-1.969262-.8996948-.795884 0-1.475374.3019955-2.035324.8996948-.563096.6008446-.843071 1.3495426-.843071 2.2523826 0 .887112.279975 1.629517.843071 2.224071.55995.594553 1.23944.890257 2.035324.890257zm8.597432-13.4734009v15.1972919h-2.271257v-15.1972919zm6.225511 15.5087249c-1.462791 0-2.683356-.497035-3.661695-1.487957-.97834-.990923-1.469082-2.217779-1.469082-3.68057 0-1.513123.471868-2.7557081 1.418749-3.7214643.946882-.9657563 2.09824-1.4502073 3.457219-1.4502073.626011 0 1.207982.1132482 1.742765.3428906.534784.2296424.97834.5222005 1.330668.8808201s.632303.7078018.84307 1.0475467c.207622.3397449.377495.6794897.509618 1.0192342l.235934.588262-6.911292 2.85952c.534784 1.044401 1.371563 1.566601 2.507191 1.566601 1.044401 0 1.893764-.475014 2.544941-1.428187l1.76164 1.176524c-.393223.588262-.946881 1.116754-1.66412 1.585476-.720385.468722-1.601205.701511-2.645606.701511zm-2.878394-5.325816 4.621159-1.9189293c-.132123-.3271618-.371203-.5914078-.723531-.7927381s-.751842-.3019954-1.195398-.3019954c-.666907 0-1.289773.2736834-1.868597.8210501-.581971.5473667-.8588 1.2803347-.833633 2.1926127z"/><path d="m96.041074 17.166828c-2.063635 0-3.793818-.698365-5.190547-2.095094s-2.095093-3.139494-2.095093-5.228296c0-2.0888018.698364-3.8315672 2.095093-5.2282961 1.396729-1.396729 3.126912-2.0950934 5.190547-2.0950934 2.113968 0 3.831567.7644259 5.149656 2.2901321l-1.252027 1.2142734c-.953173-1.1891071-2.252383-1.7805149-3.897629-1.7805149-1.528852 0-2.815478.5159089-3.866171 1.5477267-1.050692 1.0318178-1.576039 2.3813599-1.576039 4.0517722 0 1.670412.525347 3.0231 1.576039 4.054918 1.050693 1.031818 2.340465 1.547727 3.866171 1.547727 1.682996 0 3.12062-.67949 4.306576-2.035324l1.25203 1.252023c-.6386.770718-1.44392 1.381-2.409674 1.830847-.962611.449848-2.013303.673199-3.148932.673199z"/><path d="m105.00971 16.855395h-1.80254v-14.020768h1.80254z"/><path d="m107.94787 8.4058139c.92801-.9720479 2.10768-1.4596447 3.5453-1.4596447 1.43448 0 2.6173.4875968 3.54531 1.4596447.928.9720478 1.39043 2.1894671 1.39043 3.6522571 0 1.462791-.46243 2.68021-1.39043 3.652258-.92801.972048-2.10768 1.459644-3.54531 1.459644-1.43762 0-2.61729-.487596-3.5453-1.459644-.928-.972048-1.39043-2.189467-1.39043-3.652258 0-1.46279.46243-2.6802093 1.39043-3.6522571zm1.34011 6.1657401c.61972.632303 1.35583.950028 2.20205.950028.84936 0 1.58233-.317725 2.20205-.950028s.93115-1.472228.93115-2.516628c0-1.044401-.31143-1.884326-.93115-2.5166292-.61972-.632303-1.35583-.9500273-2.20205-.9500273-.84936 0-1.58233.3177243-2.20205.9500273-.61972.6323032-.93115 1.4722282-.93115 2.5166292 0 1.0444.31143 1.884325.93115 2.516628z"/><path d="m126.39476 16.855395h-1.72389v-1.330668h-.0786c-.27369.456139-.69208.846217-1.25203 1.163941-.55995.32087-1.1545.481305-1.78051.481305-1.20169 0-2.11082-.364911-2.73054-1.097879-.61972-.729822-.93116-1.711307-.93116-2.938164v-5.876328h1.80254v5.580624c0 1.789952.78959 2.683356 2.36878 2.683356.74555 0 1.35268-.29885 1.82141-.899695.46872-.600845.70465-1.292918.70465-2.076219v-5.288066h1.80254v9.597793z"/><path d="m132.50388 17.166828c-1.23944 0-2.31215-.490743-3.21185-1.469082-.89969-.97834-1.34954-2.192613-1.34954-3.64282 0-1.450208.44985-2.6644811 1.34954-3.6428206.8997-.9783394 1.97241-1.469082 3.21185-1.469082.72982 0 1.38729.1572893 1.96926.4687221.58197.3145786 1.01609.7046561 1.30236 1.176524h.0786l-.0786-1.3306675v-4.422975h1.80253v14.020768h-1.72389v-1.330668h-.0786c-.28627.468722-.72039.861946-1.30236 1.176524-.58197.308287-1.23944.465577-1.96926.465577zm.29256-1.645246c.84936 0 1.56974-.314579 2.1643-.94059.59455-.626012.89025-1.469082.89025-2.526066 0-1.056985-.2957-1.900055-.89025-2.5260666-.59456-.6260114-1.31494-.9405899-2.1643-.9405899-.83678 0-1.55402.3177243-2.15487.9500273-.60084.6323032-.89969 1.4722282-.89969 2.5166292 0 1.0444.29885 1.884325.89969 2.516628.60085.635449 1.32123.950028 2.15487.950028z"/></g></g></svg>